<svg width="1197" height="663" viewBox="0 0 1197 663" fill="none" xmlns="http://www.w3.org/2000/svg">
<g clip-path="url(#clip0_1_23)">
<path d="M4.62661 6.56688L2.66933 6.29691L3.20927 -0.114855H10.026V1.77493H4.86283L4.59286 4.74459C5.08218 4.28901 5.84147 3.91781 6.80323 3.91781C9.21608 3.91781 10.7515 5.68948 10.7515 8.00109C10.7515 10.3802 8.89549 12.1856 6.39828 12.1856C4.01918 12.1856 2.29812 10.8864 1.91004 8.54102L3.98543 8.16982C4.18791 9.53653 5.09905 10.3971 6.39828 10.3971C7.71438 10.3971 8.72676 9.40155 8.72676 8.06858C8.72676 6.73561 7.86623 5.6726 6.51639 5.6726C5.63899 5.6726 4.98094 6.07756 4.62661 6.56688Z" fill="#BCBEC0"/>
<path d="M9.13059 141H7.15644V138.047H1.43648V136.36L6.4309 128.885H9.16434V136.259H11.3916V138.047H9.13059V141ZM3.59623 136.259H7.1227V130.961L3.59623 136.259Z" fill="#BCBEC0"/>
<path d="M7.12873 270.186C4.74963 270.186 2.85984 268.903 2.50551 266.474L4.5809 266.085C4.78337 267.553 5.81263 268.397 7.09498 268.397C8.41108 268.397 9.3391 267.688 9.3391 266.44C9.3391 265.208 8.36046 264.668 6.96 264.668H5.76201V262.846H6.94312C8.22548 262.846 9.01851 262.289 9.01851 261.209C9.01851 260.146 8.30984 259.488 7.11185 259.488C5.84638 259.488 5.00272 260.399 4.7665 261.715L2.8261 261.361C3.14669 259.319 4.74963 257.7 7.17935 257.7C9.60907 257.7 11.0433 259.117 11.0433 261.091C11.0433 262.323 10.3177 263.352 9.32223 263.706C10.4865 264.078 11.4145 264.989 11.4145 266.575C11.4145 268.515 9.7778 270.186 7.12873 270.186Z" fill="#BCBEC0"/>
<path d="M2.24632 397.245L5.28347 394.748C6.93703 393.398 8.42186 392.2 8.42186 390.682C8.42186 389.433 7.6457 388.539 6.36334 388.539C5.09787 388.539 4.27109 389.534 4.27109 390.732C4.27109 391.12 4.33858 391.508 4.47356 391.88H2.46567C2.29694 391.39 2.24632 391.07 2.24632 390.614C2.24632 388.336 4.11923 386.7 6.41396 386.7C8.94492 386.7 10.5647 388.269 10.5647 390.547C10.5647 392.689 8.94492 394.157 7.24074 395.507L5.21598 397.11H10.7166V399H2.24632V397.245Z" fill="#BCBEC0"/>
<path d="M6.53557 515.801H8.17225V528H6.0125V519.597H3.09346V517.994L4.27458 517.893C5.79315 517.758 6.41746 517.235 6.53557 515.801Z" fill="#BCBEC0"/>
<path d="M1.32766 650.943C1.32766 647.247 3.08246 644.7 6.08586 644.7C9.08926 644.7 10.8441 647.247 10.8441 650.943C10.8441 654.638 9.08926 657.186 6.08586 657.186C3.08246 657.186 1.32766 654.638 1.32766 650.943ZM3.48741 650.943C3.48741 653.49 4.29732 655.313 6.08586 655.313C7.8744 655.313 8.68431 653.49 8.68431 650.943C8.68431 648.395 7.8744 646.572 6.08586 646.572C4.29732 646.572 3.48741 648.395 3.48741 650.943Z" fill="#BCBEC0"/>
</g>
<defs>
<clipPath id="clip0_1_23">
<rect width="1197" height="663" fill="white"/>
</clipPath>
</defs>
</svg>
