<svg width="1920" height="1158" viewBox="0 0 1920 1158" fill="none" xmlns="http://www.w3.org/2000/svg">
<g clip-path="url(#clip0_3348_19879)">
<rect width="1920" height="1158" fill="url(#paint0_linear_3348_19879)"/>
<path fill-rule="evenodd" clip-rule="evenodd" d="M2850.17 -298.875H2965.12V-183.926H2850.17V-298.875ZM2733.22 -298.875H2618.27V-183.926H2733.22V-298.875ZM2734.22 -298.875V-183.926H2849.17V-298.875H2734.22ZM2733.22 -182.926H2618.27V-67.9765H2733.22V-182.926ZM2734.22 -67.9765V-182.926H2849.17V-67.9765H2734.22ZM2733.22 -66.9765H2618.27V47.9725H2733.22V-66.9765ZM2734.22 47.9725V-66.9765H2849.17V47.9725H2734.22ZM2733.22 48.9725H2618.27V163.922H2733.22V48.9725ZM2734.22 163.922V48.9725H2849.17V163.922H2734.22ZM2733.22 164.922H2618.27V279.871H2733.22V164.922ZM2734.22 279.871V164.922H2849.17V279.871H2734.22ZM2733.22 280.871H2618.27V395.82H2733.22V280.871ZM2734.22 395.82V280.871H2849.17V395.82H2734.22ZM2733.22 396.82H2618.27V511.77H2733.22V396.82ZM2734.22 511.77V396.82H2849.17V511.77H2734.22ZM2733.22 512.77H2618.27V627.719H2733.22V512.77ZM2734.22 627.719V512.77H2849.17V627.719H2734.22ZM2733.22 628.719H2618.27V743.668H2733.22V628.719ZM2734.22 743.668V628.719H2849.17V743.668H2734.22ZM2733.22 744.668H2618.27V859.617H2733.22V744.668ZM2734.22 859.617V744.668H2849.17V859.617H2734.22ZM2733.22 860.617H2618.27V975.567H2733.22V860.617ZM2734.22 975.567V860.617H2849.17V975.567H2734.22ZM2733.22 976.567H2618.27V1091.52H2733.22V976.567ZM2734.22 1091.52V976.567H2849.17V1091.52H2734.22ZM2733.22 1092.52H2618.27V1207.47H2733.22V1092.52ZM2734.22 1207.47V1092.52H2849.17V1207.47H2734.22ZM2850.17 47.9725V-66.9765H2965.12V47.9725H2850.17ZM2850.17 163.922V48.9725H2965.12V163.922H2850.17ZM2850.17 279.871V164.922H2965.12V279.871H2850.17ZM2850.17 395.82V280.871H2965.12V395.82H2850.17ZM2850.17 511.77V396.82H2965.12V511.77H2850.17ZM2850.17 627.719V512.77H2965.12V627.719H2850.17ZM2850.17 743.668V628.719H2965.12V743.668H2850.17ZM2850.17 859.617V744.668H2965.12V859.617H2850.17ZM2850.17 975.567V860.617H2965.12V975.567H2850.17ZM2850.17 1091.52V976.567H2965.12V1091.52H2850.17ZM2850.17 1207.47V1092.52H2965.12V1207.47H2850.17ZM2850.17 -67.9765V-182.926H2965.12V-67.9765H2850.17ZM994.976 1208.47H1109.93H1110.93L2966.12 1208.47V1207.47V1092.52V1091.52V976.567V975.567V860.617V859.617V744.668V743.668V628.719V627.719V512.77V511.77V396.82V395.82V280.871V279.871V164.922V163.922V48.9725V47.9725V-66.9765V-67.9765V-182.926V-183.926V-298.875L2966.12 -298.875L2966.12 -299.875H-164.523V-298.875H1225.88V-183.926H1110.93V-298.875H1109.93V-183.926H994.976V-298.875H993.976V-183.926H879.026V-298.875H878.026V-183.926H763.077V-298.875H762.077V-183.926H647.127V-298.875H646.127V-183.926H531.179V-298.875H530.179V-183.926H415.226V-298.875H414.226V-183.926H299.277V-298.875H298.277V-183.926H183.328V-298.875H182.328V-183.926H67.3778V-298.875H66.3778V-183.926H-48.572L-48.572 -298.875H-49.572L-49.572 -183.926H-164.523V-182.926H-49.572V-67.9765H-164.523V-66.9765H-49.572L-49.572 47.9725H-164.523V48.9725H-49.572V163.922H-164.523V164.922H-49.572L-49.572 279.871H-164.523V280.871H-49.572L-49.572 395.82H-164.523V396.82H-49.572V511.77H-164.523V512.77H-49.572L-49.572 627.719H-164.523V628.719H-49.572L-49.572 743.668H-164.523V744.668H-49.572V859.617H-164.523V860.617H-49.572L-49.5719 975.567H-164.523V976.567H-49.5719V1091.52H-164.523V1092.52H-49.5719L-49.5719 1207.47H-164.523V1208.47L-49.5719 1208.47H-48.5719H66.3779H67.3779H182.328H183.328H298.277H299.277H414.226H415.226H530.179H531.179H646.127H647.127H762.077H763.077H878.026H879.026H993.976H994.976ZM66.3778 -182.926H-48.572V-67.9765H66.3778L66.3778 -182.926ZM66.3778 -66.9765H-48.572L-48.572 47.9725H66.3778V-66.9765ZM66.3778 48.9725H-48.572V163.922H66.3778V48.9725ZM66.3778 164.922H-48.572L-48.572 279.871H66.3778L66.3778 164.922ZM66.3778 280.871H-48.572L-48.572 395.82H66.3778V280.871ZM66.3778 396.82H-48.572V511.77H66.3778V396.82ZM66.3778 512.77H-48.572L-48.572 627.719H66.3778V512.77ZM66.3778 628.719H-48.572L-48.572 743.668H66.3779L66.3778 628.719ZM66.3779 744.668H-48.572V859.617H66.3779V744.668ZM66.3779 860.617H-48.572L-48.5719 975.567H66.3779V860.617ZM66.3779 976.567H-48.5719V1091.52H66.3779L66.3779 976.567ZM66.3779 1092.52H-48.5719L-48.5719 1207.47H66.3779V1092.52ZM182.328 -182.926H67.3778L67.3778 -67.9765H182.328V-182.926ZM182.328 -66.9765H67.3778V47.9725H182.328V-66.9765ZM182.328 48.9725H67.3778V163.922H182.328L182.328 48.9725ZM182.328 164.922H67.3778L67.3778 279.871H182.328V164.922ZM182.328 280.871H67.3778V395.82H182.328V280.871ZM182.328 396.82H67.3778V511.77H182.328V396.82ZM182.328 512.77H67.3778V627.719H182.328V512.77ZM182.328 628.719H67.3778L67.3779 743.668H182.328V628.719ZM182.328 744.668H67.3779V859.617H182.328L182.328 744.668ZM182.328 860.617H67.3779V975.567H182.328V860.617ZM182.328 976.567H67.3779L67.3779 1091.52H182.328V976.567ZM182.328 1092.52H67.3779V1207.47H182.328V1092.52ZM298.277 -182.926H183.328V-67.9765H298.277V-182.926ZM298.277 -66.9765H183.328V47.9725H298.277V-66.9765ZM298.277 48.9725H183.328L183.328 163.922H298.277L298.277 48.9725ZM298.277 164.922H183.328V279.871H298.277V164.922ZM298.277 280.871H183.328V395.82H298.277V280.871ZM298.277 396.82H183.328V511.77H298.277V396.82ZM298.277 512.77H183.328V627.719H298.277V512.77ZM298.277 628.719H183.328V743.668H298.277V628.719ZM298.277 744.668H183.328L183.328 859.617H298.277L298.277 744.668ZM298.277 860.617H183.328V975.567H298.277V860.617ZM298.277 976.567H183.328V1091.52H298.277V976.567ZM298.277 1092.52H183.328V1207.47H298.277V1092.52ZM414.226 -182.926H299.277V-67.9765H414.226V-182.926ZM414.226 -66.9765H299.277V47.9725H414.226V-66.9765ZM414.226 48.9725H299.277L299.277 163.922H414.226V48.9725ZM414.226 164.922H299.277V279.871H414.226V164.922ZM414.226 280.871H299.277V395.82H414.226V280.871ZM414.226 396.82H299.277V511.77H414.226L414.226 396.82ZM414.226 512.77H299.277V627.719H414.226V512.77ZM414.226 628.719H299.277V743.668H414.226V628.719ZM414.226 744.668H299.277L299.277 859.617H414.226V744.668ZM414.226 860.617H299.277V975.567H414.226V860.617ZM414.226 976.567H299.277V1091.52H414.226V976.567ZM414.226 1092.52H299.277V1207.47H414.226V1092.52ZM530.179 -182.926H415.226V-67.9765H530.179V-182.926ZM530.179 -66.9765H415.226V47.9725H530.179V-66.9765ZM530.179 48.9725H415.226V163.922H530.179V48.9725ZM530.179 164.922H415.226V279.871H530.179V164.922ZM530.179 280.871H415.226V395.82H530.179V280.871ZM530.179 396.82H415.226L415.226 511.77H530.179L530.179 396.82ZM530.179 512.77H415.226V627.719H530.179V512.77ZM530.179 628.719H415.226V743.668H530.179V628.719ZM530.179 744.668H415.226V859.617H530.179V744.668ZM530.179 860.617H415.226V975.567H530.179V860.617ZM530.179 976.567H415.226V1091.52H530.179V976.567ZM530.179 1092.52H415.226V1207.47H530.179V1092.52ZM646.127 -182.926H531.179V-67.9765H646.127V-182.926ZM646.127 -66.9765H531.179V47.9725H646.127V-66.9765ZM646.127 48.9725H531.179V163.922H646.127V48.9725ZM646.127 164.922H531.179V279.871H646.127V164.922ZM646.127 280.871H531.179V395.82H646.127V280.871ZM646.127 396.82H531.179L531.179 511.77H646.127L646.127 396.82ZM646.127 512.77H531.179V627.719H646.127V512.77ZM646.127 628.719H531.179V743.668H646.127V628.719ZM646.127 744.668H531.179V859.617H646.127V744.668ZM646.127 860.617H531.179V975.567H646.127V860.617ZM646.127 976.567H531.179V1091.52H646.127V976.567ZM646.127 1092.52H531.179V1207.47H646.127V1092.52ZM994.976 1207.47H1109.93V1092.52H994.976V1207.47ZM1110.93 1092.52V1207.47H1225.88V1092.52H1110.93ZM1225.88 1091.52H1110.93V976.567H1225.88V1091.52ZM1109.93 976.567V1091.52H994.976V976.567H1109.93ZM994.976 975.567H1109.93V860.617H994.976V975.567ZM1110.93 860.617V975.567H1225.88V860.617H1110.93ZM1225.88 859.617H1110.93V744.668H1225.88V859.617ZM1109.93 744.668V859.617H994.976V744.668H1109.93ZM994.976 743.668H1109.93V628.719H994.976V743.668ZM1110.93 628.719V743.668H1225.88V628.719H1110.93ZM1225.88 627.719H1110.93V512.77H1225.88V627.719ZM1109.93 512.77V627.719H994.976V512.77H1109.93ZM994.976 511.77H1109.93L1109.93 396.82H994.976L994.976 511.77ZM1110.93 396.82L1110.93 511.77H1225.88L1225.88 396.82H1110.93ZM1225.88 395.82H1110.93V280.871H1225.88V395.82ZM1109.93 280.871V395.82H994.976V280.871H1109.93ZM994.976 279.871H1109.93V164.922H994.976V279.871ZM1110.93 164.922V279.871H1225.88V164.922H1110.93ZM1225.88 163.922H1110.93V48.9725H1225.88V163.922ZM1109.93 48.9725V163.922H994.976V48.9725H1109.93ZM994.976 47.9725H1109.93V-66.9765H994.976V47.9725ZM1110.93 -66.9765V47.9725H1225.88V-66.9765H1110.93ZM1225.88 -67.9765H1110.93V-182.926H1225.88V-67.9765ZM1109.93 -182.926V-67.9765H994.976V-182.926H1109.93ZM762.077 -182.926H647.127V-67.9765H762.077V-182.926ZM762.077 -66.9765H647.127V47.9725H762.077V-66.9765ZM762.077 48.9725H647.127V163.922H762.077V48.9725ZM762.077 164.922H647.127V279.871H762.077V164.922ZM762.077 280.871H647.127V395.82H762.077V280.871ZM762.077 396.82H647.127L647.127 511.77H762.077L762.077 396.82ZM762.077 512.77H647.127V627.719H762.077V512.77ZM762.077 628.719H647.127V743.668H762.077V628.719ZM762.077 744.668H647.127V859.617H762.077V744.668ZM762.077 860.617H647.127V975.567H762.077V860.617ZM762.077 976.567H647.127V1091.52H762.077V976.567ZM762.077 1092.52H647.127V1207.47H762.077V1092.52ZM1226.88 -183.926V-298.875H1341.83V-183.926H1226.88ZM1226.88 -182.926V-67.9765H1341.83V-182.926H1226.88ZM1226.88 -66.9765V47.9725H1341.83V-66.9765H1226.88ZM1226.88 48.9725V163.922H1341.83V48.9725H1226.88ZM1226.88 164.922V279.871H1341.83V164.922H1226.88ZM1226.88 280.871V395.82H1341.83V280.871H1226.88ZM1226.88 396.82L1226.88 511.77H1341.83L1341.83 396.82H1226.88ZM1226.88 512.77V627.719H1341.83V512.77H1226.88ZM1226.88 628.719V743.668H1341.83V628.719H1226.88ZM1226.88 744.668V859.617H1341.83V744.668H1226.88ZM1226.88 860.617V975.567H1341.83V860.617H1226.88ZM1226.88 976.567V1091.52H1341.83V976.567H1226.88ZM1226.88 1092.52V1207.47H1341.83V1092.52H1226.88ZM763.077 -67.9765V-182.926H878.026V-67.9765H763.077ZM763.077 47.9725V-66.9765H878.026V47.9725H763.077ZM763.077 163.922V48.9725H878.026V163.922H763.077ZM763.077 279.871V164.922H878.026V279.871H763.077ZM763.077 395.82V280.871H878.026V395.82H763.077ZM763.077 511.77L763.077 396.82H878.026L878.026 511.77H763.077ZM763.077 627.719V512.77H878.026V627.719H763.077ZM763.077 743.668V628.719H878.026V743.668H763.077ZM763.077 859.617V744.668H878.026V859.617H763.077ZM763.077 975.567V860.617H878.026V975.567H763.077ZM763.077 1091.52V976.567H878.026V1091.52H763.077ZM763.077 1207.47V1092.52H878.026V1207.47H763.077ZM1342.83 -183.926V-298.875H1457.78V-183.926H1342.83ZM1458.78 -183.926V-298.875H1573.72V-183.926H1458.78ZM1458.78 -182.926H1573.72V-67.9765H1458.78V-182.926ZM1457.78 -182.926V-67.9765H1342.83V-182.926H1457.78ZM1457.78 -66.9765H1342.83V47.9725H1457.78V-66.9765ZM1458.78 -66.9765V47.9725H1573.72V-66.9765H1458.78ZM1458.78 48.9725H1573.72V163.922H1458.78V48.9725ZM1457.78 48.9725V163.922H1342.83V48.9725H1457.78ZM1457.78 164.922H1342.83V279.871H1457.78V164.922ZM1458.78 164.922V279.871H1573.72V164.922H1458.78ZM1458.78 280.871H1573.72V395.82H1458.78V280.871ZM1457.78 280.871V395.82H1342.83V280.871H1457.78ZM1457.78 396.82H1342.83L1342.83 511.77H1457.78L1457.78 396.82ZM1458.78 396.82L1458.78 511.77H1573.73L1573.72 396.82H1458.78ZM1458.78 512.77H1573.73V627.719H1458.78V512.77ZM1457.78 512.77V627.719H1342.83V512.77H1457.78ZM1457.78 628.719H1342.83V743.668H1457.78V628.719ZM1458.78 628.719V743.668H1573.73V628.719H1458.78ZM1458.78 744.668H1573.73V859.617H1458.78V744.668ZM1457.78 744.668V859.617H1342.83V744.668H1457.78ZM1457.78 860.617H1342.83V975.567H1457.78V860.617ZM1458.78 860.617V975.567H1573.73V860.617H1458.78ZM1458.78 976.567H1573.73V1091.52H1458.78V976.567ZM1457.78 976.567V1091.52H1342.83V976.567H1457.78ZM1457.78 1092.52H1342.83V1207.47H1457.78V1092.52ZM1458.78 1092.52V1207.47H1573.73V1092.52H1458.78ZM1574.72 -183.926V-298.875H1689.68V-183.926H1574.72ZM1574.72 -182.926H1689.68V-67.9765H1574.72V-182.926ZM1574.72 -66.9765V47.9725H1689.68V-66.9765H1574.72ZM1574.72 48.9725H1689.68V163.922H1574.72V48.9725ZM1574.72 164.922V279.871H1689.68V164.922H1574.72ZM1574.72 280.871H1689.68V395.82H1574.72V280.871ZM1574.72 396.82L1574.73 511.77H1689.68L1689.68 396.82H1574.72ZM1574.73 512.77H1689.68V627.719H1574.73V512.77ZM1574.73 628.719V743.668H1689.68V628.719H1574.73ZM1574.73 744.668H1689.68V859.617H1574.73V744.668ZM1574.73 860.617V975.567H1689.68V860.617H1574.73ZM1574.73 976.567H1689.68V1091.52H1574.73V976.567ZM1574.73 1092.52V1207.47H1689.68V1092.52H1574.73ZM1690.68 -183.926V-298.875H1805.63V-183.926H1690.68ZM1690.68 -182.926H1805.63V-67.9765H1690.68V-182.926ZM1690.68 -66.9765V47.9725H1805.63V-66.9765H1690.68ZM1690.68 48.9725H1805.63V163.922H1690.68V48.9725ZM1690.68 164.922V279.871H1805.63V164.922H1690.68ZM1690.68 280.871H1805.63V395.82H1690.68V280.871ZM1690.68 396.82L1690.68 511.77H1805.63L1805.63 396.82H1690.68ZM1690.68 512.77H1805.63V627.719H1690.68V512.77ZM1690.68 628.719V743.668H1805.63V628.719H1690.68ZM1690.68 744.668H1805.63V859.617H1690.68V744.668ZM1690.68 860.617V975.567H1805.63V860.617H1690.68ZM1690.68 976.567H1805.63V1091.52H1690.68V976.567ZM1690.68 1092.52V1207.47H1805.63V1092.52H1690.68ZM1806.63 -183.926V-298.875H1921.57V-183.926H1806.63ZM1806.63 -182.926H1921.57V-67.9765H1806.63V-182.926ZM1806.63 -66.9765V47.9725H1921.57V-66.9765H1806.63ZM1806.63 48.9725H1921.57V163.922H1806.63V48.9725ZM1806.63 164.922V279.871H1921.57V164.922H1806.63ZM1806.63 280.871H1921.57V395.82H1806.63V280.871ZM1806.63 396.82L1806.63 511.77H1921.57V396.82H1806.63ZM1806.63 512.77H1921.57V627.719H1806.63V512.77ZM1806.63 628.719V743.668H1921.57V628.719H1806.63ZM1806.63 744.668H1921.57V859.617H1806.63V744.668ZM1806.63 860.617V975.567H1921.57V860.617H1806.63ZM1806.63 976.567H1921.57V1091.52H1806.63V976.567ZM1806.63 1092.52V1207.47H1921.57V1092.52H1806.63ZM1922.57 -183.926V-298.875H2037.52V-183.926H1922.57ZM1922.57 -182.926H2037.52V-67.9765H1922.57V-182.926ZM1922.57 -66.9765V47.9725H2037.52V-66.9765H1922.57ZM1922.57 48.9725H2037.52V163.922H1922.57V48.9725ZM1922.57 164.922V279.871H2037.52V164.922H1922.57ZM1922.57 280.871H2037.52V395.82H1922.57V280.871ZM1922.57 396.82V511.77H2037.52V396.82H1922.57ZM1922.57 512.77H2037.52V627.719H1922.57V512.77ZM1922.57 628.719V743.668H2037.52V628.719H1922.57ZM1922.57 744.668H2037.52V859.617H1922.57V744.668ZM1922.57 860.617V975.567H2037.52V860.617H1922.57ZM1922.57 976.567H2037.52V1091.52H1922.57V976.567ZM1922.57 1092.52V1207.47H2037.52V1092.52H1922.57ZM2038.52 -183.926V-298.875H2153.47V-183.926H2038.52ZM2038.52 -182.926H2153.47V-67.9765H2038.52V-182.926ZM2038.52 -66.9765V47.9725H2153.47V-66.9765H2038.52ZM2038.52 48.9725H2153.47V163.922H2038.52V48.9725ZM2038.52 164.922V279.871H2153.47V164.922H2038.52ZM2038.52 280.871H2153.47V395.82H2038.52V280.871ZM2038.52 396.82V511.77H2153.47V396.82H2038.52ZM2038.52 512.77H2153.47V627.719H2038.52V512.77ZM2038.52 628.719V743.668H2153.47V628.719H2038.52ZM2038.52 744.668H2153.47V859.617H2038.52V744.668ZM2038.52 860.617V975.567H2153.47V860.617H2038.52ZM2038.52 976.567H2153.47V1091.52H2038.52V976.567ZM2038.52 1092.52V1207.47H2153.47V1092.52H2038.52ZM2154.47 -183.926V-298.875H2269.42V-183.926H2154.47ZM2154.47 -182.926H2269.42V-67.9765H2154.47V-182.926ZM2154.47 -66.9765V47.9725H2269.42V-66.9765H2154.47ZM2154.47 48.9725H2269.42V163.922H2154.47V48.9725ZM2154.47 164.922V279.871H2269.42V164.922H2154.47ZM2154.47 280.871H2269.42V395.82H2154.47V280.871ZM2154.47 396.82V511.77H2269.42V396.82H2154.47ZM2154.47 512.77H2269.42V627.719H2154.47V512.77ZM2154.47 628.719V743.668H2269.42V628.719H2154.47ZM2154.47 744.668H2269.42V859.617H2154.47V744.668ZM2154.47 860.617V975.567H2269.42V860.617H2154.47ZM2154.47 976.567H2269.42V1091.52H2154.47V976.567ZM2154.47 1092.52V1207.47H2269.42V1092.52H2154.47ZM2270.42 -182.926H2385.38V-67.9765H2270.42V-182.926ZM2270.42 -66.9765V47.9725H2385.38V-66.9765H2270.42ZM2270.42 48.9725H2385.38V163.922H2270.42V48.9725ZM2270.42 164.922V279.871H2385.38V164.922H2270.42ZM2270.42 280.871H2385.38V395.82H2270.42V280.871ZM2270.42 396.82V511.77H2385.38V396.82H2270.42ZM2270.42 512.77H2385.38V627.719H2270.42V512.77ZM2270.42 628.719V743.668H2385.38V628.719H2270.42ZM2270.42 744.668H2385.38V859.617H2270.42V744.668ZM2270.42 860.617V975.567H2385.38V860.617H2270.42ZM2270.42 976.567H2385.38V1091.52H2270.42V976.567ZM2270.42 1092.52V1207.47H2385.38V1092.52H2270.42ZM2270.42 -183.926V-298.875H2385.38V-183.926H2270.42ZM2386.38 -67.9765V-182.926H2501.32V-67.9765H2386.38ZM2386.38 47.9725V-66.9765H2501.32V47.9725H2386.38ZM2386.38 163.922V48.9725H2501.32V163.922H2386.38ZM2386.38 279.871V164.922H2501.32V279.871H2386.38ZM2386.38 395.82V280.871H2501.32V395.82H2386.38ZM2386.38 511.77V396.82H2501.32V511.77H2386.38ZM2386.38 627.719V512.77H2501.32V627.719H2386.38ZM2386.38 743.668V628.719H2501.32V743.668H2386.38ZM2386.38 859.617V744.668H2501.32V859.617H2386.38ZM2386.38 975.567V860.617H2501.32V975.567H2386.38ZM2386.38 1091.52V976.567H2501.32V1091.52H2386.38ZM2386.38 1207.47V1092.52H2501.32V1207.47H2386.38ZM2386.38 -183.926V-298.875H2501.32V-183.926H2386.38ZM2502.32 -67.9765V-182.926H2617.27V-67.9765H2502.32ZM2502.32 47.9725V-66.9765H2617.27V47.9725H2502.32ZM2502.32 163.922V48.9725H2617.27V163.922H2502.32ZM2502.32 279.871V164.922H2617.27V279.871H2502.32ZM2502.32 395.82V280.871H2617.27V395.82H2502.32ZM2502.32 511.77V396.82H2617.27V511.77H2502.32ZM2502.32 627.719V512.77H2617.27V627.719H2502.32ZM2502.32 743.668V628.719H2617.27V743.668H2502.32ZM2502.32 859.617V744.668H2617.27V859.617H2502.32ZM2502.32 975.567V860.617H2617.27V975.567H2502.32ZM2502.32 1091.52V976.567H2617.27V1091.52H2502.32ZM2502.32 1207.47V1092.52H2617.27V1207.47H2502.32ZM2502.32 -183.926V-298.875H2617.27V-183.926H2502.32ZM879.026 -67.9765V-182.926H993.976V-67.9765H879.026ZM879.026 47.9725V-66.9765H993.976V47.9725H879.026ZM879.026 163.922V48.9725H993.976V163.922H879.026ZM879.026 279.871V164.922H993.976V279.871H879.026ZM879.026 395.82V280.871H993.976V395.82H879.026ZM879.026 511.77L879.026 396.82H993.976L993.976 511.77H879.026ZM879.026 627.719V512.77H993.976V627.719H879.026ZM879.026 743.668V628.719H993.976V743.668H879.026ZM879.026 859.617V744.668H993.976V859.617H879.026ZM879.026 975.567V860.617H993.976V975.567H879.026ZM879.026 1091.52V976.567H993.976V1091.52H879.026ZM879.026 1207.47V1092.52H993.976V1207.47H879.026ZM-164.523 -298.875L-164.523 1208.47H-165.523L-165.523 -298.875H-164.523Z" fill="url(#paint1_radial_3348_19879)"/>
<g clip-path="url(#clip1_3348_19879)">
<path d="M614.955 993.634V982.353H581.039V926.994H568.087V993.634H614.955ZM647.535 991.535C650.339 989.436 652.476 986.682 653.945 983.271V993.634H666.362V961.495C666.362 958.084 665.561 954.936 663.825 952.312C662.09 949.688 659.553 947.59 656.348 946.147C653.143 944.704 649.271 943.916 644.865 943.916C642.461 943.916 640.058 944.179 637.788 944.572C635.518 944.966 633.381 945.622 631.379 946.409C629.376 947.196 627.506 948.114 625.904 949.164L626.305 960.576C629.376 958.609 632.313 957.166 635.251 956.116C638.188 955.067 641.393 954.542 644.998 954.542C647.802 954.542 650.072 955.198 651.675 956.51C653.277 957.822 654.078 959.527 654.078 961.626V964.905H642.862C636.185 964.905 630.978 966.217 627.106 968.972C623.233 971.727 621.364 975.531 621.364 980.385C621.364 983.14 622.032 985.501 623.233 987.731C624.569 989.961 626.305 991.666 628.708 992.847C631.111 994.159 633.916 994.684 636.987 994.684C641.259 994.684 644.731 993.634 647.535 991.535ZM636.319 983.271C634.984 982.221 634.183 980.778 634.183 978.942C634.183 976.712 635.117 975.006 637.12 973.826C638.99 972.645 641.927 971.989 645.666 971.989H653.677V973.826C653.677 975.4 653.277 976.974 652.342 978.679C651.408 980.385 650.072 981.828 648.203 983.008C646.333 984.189 644.197 984.845 641.794 984.845C639.524 984.845 637.654 984.32 636.319 983.271ZM705.886 991.404C708.824 988.912 710.96 985.501 712.296 981.303V993.634H724.847V945.359H712.296V967.923C712.296 971.202 711.762 974.088 710.693 976.581C709.625 979.073 708.156 981.172 706.153 982.484C704.151 983.927 701.881 984.583 699.344 984.583C696.539 984.583 694.403 983.796 692.801 982.221C691.332 980.647 690.531 978.286 690.531 975.269V945.359H677.979V975.531C677.979 981.828 679.448 986.55 682.519 989.961C685.59 993.372 689.596 995.077 694.804 995.077C699.344 995.077 702.949 993.896 705.886 991.404ZM751.152 993.634V971.071C751.152 967.791 751.686 964.905 752.754 962.413C753.822 959.921 755.291 957.822 757.161 956.51C759.03 955.067 761.3 954.411 763.837 954.411C766.641 954.411 768.777 955.198 770.38 956.772C771.848 958.346 772.65 960.708 772.65 963.725V993.765H785.335V963.594C785.335 957.297 783.866 952.574 780.795 949.164C777.724 945.753 773.718 944.048 768.51 944.048C764.104 944.048 760.499 945.359 757.561 947.721C754.757 950.213 752.621 953.624 751.152 957.822V945.491H738.6V993.765H751.152V993.634ZM827.796 994.684C829.398 994.421 831.001 994.028 832.336 993.634C833.805 993.241 835.007 992.716 836.342 992.322L836.475 980.647C834.472 981.697 832.336 982.353 830.066 982.877C827.796 983.402 825.526 983.664 823.256 983.664C819.918 983.664 816.98 983.008 814.711 981.828C812.441 980.647 810.705 978.942 809.637 976.712C808.568 974.613 808.034 972.12 808.034 969.497C808.034 966.873 808.568 964.512 809.637 962.282C810.705 960.183 812.441 958.478 814.711 957.166C816.98 955.854 819.785 955.329 822.989 955.329C825.526 955.329 827.796 955.592 830.066 956.116C832.336 956.641 834.339 957.428 836.342 958.346L836.208 946.278C834.74 945.753 833.404 945.228 832.069 944.966C830.734 944.572 829.265 944.31 827.529 944.179C825.927 943.917 824.191 943.785 822.322 943.785C816.713 943.785 811.906 944.966 807.767 947.196C803.628 949.426 800.423 952.574 798.153 956.379C795.883 960.314 794.815 964.643 794.815 969.628C794.815 974.482 796.017 978.942 798.287 982.746C800.557 986.55 803.761 989.568 807.901 991.666C812.04 993.765 816.847 994.946 822.322 994.946C824.324 995.077 826.194 994.946 827.796 994.684ZM860.243 993.634V971.071C860.243 967.791 860.777 964.905 861.845 962.413C862.914 959.921 864.382 957.822 866.385 956.51C868.388 955.067 870.525 954.411 873.062 954.411C875.999 954.411 878.136 955.198 879.604 956.772C881.073 958.346 881.874 960.708 881.874 963.725V993.765H894.426V963.594C894.426 957.297 892.957 952.574 889.886 949.164C886.815 945.753 882.809 944.048 877.602 944.048C873.195 944.048 869.456 945.359 866.652 947.721C863.715 950.213 861.578 953.624 860.243 957.822V926.994H847.825V993.634H860.243ZM935.018 993.634C942.228 993.634 948.371 992.322 953.445 989.568C958.519 986.813 962.391 983.008 965.061 978.024C967.732 973.039 969.067 967.136 969.067 960.445C969.067 953.755 967.732 947.852 965.061 942.867C962.391 937.882 958.519 933.947 953.445 931.192C948.371 928.437 942.228 927.125 935.018 927.125H908.98V993.765H935.018V993.634ZM921.932 982.353V938.276H934.884C941.427 938.276 946.501 940.243 950.106 944.048C953.845 947.983 955.581 953.362 955.581 960.314C955.581 967.267 953.712 972.776 950.106 976.581C946.368 980.385 941.294 982.353 934.884 982.353H921.932ZM1001.91 991.535C1004.72 989.436 1006.86 986.682 1008.32 983.271V993.634H1020.74V961.495C1020.74 958.084 1019.94 954.936 1018.21 952.312C1016.47 949.688 1013.93 947.59 1010.73 946.147C1007.52 944.704 1003.65 943.916 999.244 943.916C996.841 943.916 994.437 944.179 992.167 944.572C989.897 944.966 987.761 945.622 985.758 946.409C983.755 947.196 981.886 948.114 980.284 949.164L980.684 960.576C983.755 958.609 986.693 957.166 989.63 956.116C992.568 955.067 995.773 954.542 999.378 954.542C1002.18 954.542 1004.45 955.198 1006.05 956.51C1007.66 957.822 1008.46 959.527 1008.46 961.626V964.905H997.508C990.832 964.905 985.625 966.217 981.752 968.972C977.88 971.727 976.011 975.531 976.011 980.385C976.011 983.14 976.678 985.501 977.88 987.731C979.215 989.961 980.951 991.666 983.355 992.847C985.758 994.159 988.562 994.684 991.633 994.684C995.773 994.684 999.111 993.634 1001.91 991.535ZM990.699 983.271C989.363 982.221 988.562 980.778 988.562 978.942C988.562 976.712 989.497 975.006 991.5 973.826C993.369 972.645 996.307 971.989 1000.05 971.989H1008.06V973.826C1008.06 975.4 1007.66 976.974 1006.72 978.679C1005.79 980.385 1004.45 981.828 1002.58 983.008C1000.71 984.189 998.71 984.714 996.307 984.714C994.037 984.845 992.167 984.32 990.699 983.271ZM1046.11 993.634V973.039C1046.11 967.66 1047.31 963.594 1049.58 960.839C1051.85 958.084 1055.06 956.641 1058.93 956.641C1060.8 956.641 1062.54 956.903 1064.14 957.428V945.491C1063.34 945.228 1062.54 945.097 1061.73 944.966C1060.93 944.835 1060 944.835 1059.06 944.835C1055.99 944.835 1053.32 945.884 1051.19 947.983C1049.05 950.082 1047.31 953.099 1046.25 956.772V945.228H1033.69V993.503H1046.11V993.634ZM1084.7 993.634V978.024L1089.24 973.826L1103.93 993.634H1118.88L1097.92 965.43L1118.48 945.359H1102.73L1084.83 962.413V926.994H1072.42V993.634H1084.7ZM1139.05 993.634V926.994H1126.5V993.634H1139.05ZM1158.27 1011.61C1162.95 1011.61 1166.69 1010.69 1169.62 1008.85C1172.56 1007.01 1174.97 1003.74 1176.97 999.144L1199.53 945.359H1186.58L1173.36 979.073L1159.74 945.359H1146.79L1166.95 993.503L1165.89 995.995C1165.22 997.57 1164.42 998.881 1163.21 999.537C1162.15 1000.32 1160.41 1000.72 1158.14 1000.72H1147.73V1011.61H1158.27Z" fill="white"/>
<path d="M614.955 993.634V982.353H581.039V926.994H568.087V993.634H614.955ZM647.535 991.535C650.339 989.436 652.476 986.682 653.945 983.271V993.634H666.362V961.495C666.362 958.084 665.561 954.936 663.825 952.312C662.09 949.688 659.553 947.59 656.348 946.147C653.143 944.704 649.271 943.916 644.865 943.916C642.461 943.916 640.058 944.179 637.788 944.572C635.518 944.966 633.381 945.622 631.379 946.409C629.376 947.196 627.506 948.114 625.904 949.164L626.305 960.576C629.376 958.609 632.313 957.166 635.251 956.116C638.188 955.067 641.393 954.542 644.998 954.542C647.802 954.542 650.072 955.198 651.675 956.51C653.277 957.822 654.078 959.527 654.078 961.626V964.905H642.862C636.185 964.905 630.978 966.217 627.106 968.972C623.233 971.727 621.364 975.531 621.364 980.385C621.364 983.14 622.032 985.501 623.233 987.731C624.569 989.961 626.305 991.666 628.708 992.847C631.111 994.159 633.916 994.684 636.987 994.684C641.259 994.684 644.731 993.634 647.535 991.535ZM636.319 983.271C634.984 982.221 634.183 980.778 634.183 978.942C634.183 976.712 635.117 975.006 637.12 973.826C638.99 972.645 641.927 971.989 645.666 971.989H653.677V973.826C653.677 975.4 653.277 976.974 652.342 978.679C651.408 980.385 650.072 981.828 648.203 983.008C646.333 984.189 644.197 984.845 641.794 984.845C639.524 984.845 637.654 984.32 636.319 983.271ZM705.886 991.404C708.824 988.912 710.96 985.501 712.296 981.303V993.634H724.847V945.359H712.296V967.923C712.296 971.202 711.762 974.088 710.693 976.581C709.625 979.073 708.156 981.172 706.153 982.484C704.151 983.927 701.881 984.583 699.344 984.583C696.539 984.583 694.403 983.796 692.801 982.221C691.332 980.647 690.531 978.286 690.531 975.269V945.359H677.979V975.531C677.979 981.828 679.448 986.55 682.519 989.961C685.59 993.372 689.596 995.077 694.804 995.077C699.344 995.077 702.949 993.896 705.886 991.404ZM751.152 993.634V971.071C751.152 967.791 751.686 964.905 752.754 962.413C753.822 959.921 755.291 957.822 757.161 956.51C759.03 955.067 761.3 954.411 763.837 954.411C766.641 954.411 768.777 955.198 770.38 956.772C771.848 958.346 772.65 960.708 772.65 963.725V993.765H785.335V963.594C785.335 957.297 783.866 952.574 780.795 949.164C777.724 945.753 773.718 944.048 768.51 944.048C764.104 944.048 760.499 945.359 757.561 947.721C754.757 950.213 752.621 953.624 751.152 957.822V945.491H738.6V993.765H751.152V993.634ZM827.796 994.684C829.398 994.421 831.001 994.028 832.336 993.634C833.805 993.241 835.007 992.716 836.342 992.322L836.475 980.647C834.472 981.697 832.336 982.353 830.066 982.877C827.796 983.402 825.526 983.664 823.256 983.664C819.918 983.664 816.98 983.008 814.711 981.828C812.441 980.647 810.705 978.942 809.637 976.712C808.568 974.613 808.034 972.12 808.034 969.497C808.034 966.873 808.568 964.512 809.637 962.282C810.705 960.183 812.441 958.478 814.711 957.166C816.98 955.854 819.785 955.329 822.989 955.329C825.526 955.329 827.796 955.592 830.066 956.116C832.336 956.641 834.339 957.428 836.342 958.346L836.208 946.278C834.74 945.753 833.404 945.228 832.069 944.966C830.734 944.572 829.265 944.31 827.529 944.179C825.927 943.917 824.191 943.785 822.322 943.785C816.713 943.785 811.906 944.966 807.767 947.196C803.628 949.426 800.423 952.574 798.153 956.379C795.883 960.314 794.815 964.643 794.815 969.628C794.815 974.482 796.017 978.942 798.287 982.746C800.557 986.55 803.761 989.568 807.901 991.666C812.04 993.765 816.847 994.946 822.322 994.946C824.324 995.077 826.194 994.946 827.796 994.684ZM860.243 993.634V971.071C860.243 967.791 860.777 964.905 861.845 962.413C862.914 959.921 864.382 957.822 866.385 956.51C868.388 955.067 870.525 954.411 873.062 954.411C875.999 954.411 878.136 955.198 879.604 956.772C881.073 958.346 881.874 960.708 881.874 963.725V993.765H894.426V963.594C894.426 957.297 892.957 952.574 889.886 949.164C886.815 945.753 882.809 944.048 877.602 944.048C873.195 944.048 869.456 945.359 866.652 947.721C863.715 950.213 861.578 953.624 860.243 957.822V926.994H847.825V993.634H860.243ZM935.018 993.634C942.228 993.634 948.371 992.322 953.445 989.568C958.519 986.813 962.391 983.008 965.061 978.024C967.732 973.039 969.067 967.136 969.067 960.445C969.067 953.755 967.732 947.852 965.061 942.867C962.391 937.882 958.519 933.947 953.445 931.192C948.371 928.437 942.228 927.125 935.018 927.125H908.98V993.765H935.018V993.634ZM921.932 982.353V938.276H934.884C941.427 938.276 946.501 940.243 950.106 944.048C953.845 947.983 955.581 953.362 955.581 960.314C955.581 967.267 953.712 972.776 950.106 976.581C946.368 980.385 941.294 982.353 934.884 982.353H921.932ZM1001.91 991.535C1004.72 989.436 1006.86 986.682 1008.32 983.271V993.634H1020.74V961.495C1020.74 958.084 1019.94 954.936 1018.21 952.312C1016.47 949.688 1013.93 947.59 1010.73 946.147C1007.52 944.704 1003.65 943.916 999.244 943.916C996.841 943.916 994.437 944.179 992.167 944.572C989.897 944.966 987.761 945.622 985.758 946.409C983.755 947.196 981.886 948.114 980.284 949.164L980.684 960.576C983.755 958.609 986.693 957.166 989.63 956.116C992.568 955.067 995.773 954.542 999.378 954.542C1002.18 954.542 1004.45 955.198 1006.05 956.51C1007.66 957.822 1008.46 959.527 1008.46 961.626V964.905H997.508C990.832 964.905 985.625 966.217 981.752 968.972C977.88 971.727 976.011 975.531 976.011 980.385C976.011 983.14 976.678 985.501 977.88 987.731C979.215 989.961 980.951 991.666 983.355 992.847C985.758 994.159 988.562 994.684 991.633 994.684C995.773 994.684 999.111 993.634 1001.91 991.535ZM990.699 983.271C989.363 982.221 988.562 980.778 988.562 978.942C988.562 976.712 989.497 975.006 991.5 973.826C993.369 972.645 996.307 971.989 1000.05 971.989H1008.06V973.826C1008.06 975.4 1007.66 976.974 1006.72 978.679C1005.79 980.385 1004.45 981.828 1002.58 983.008C1000.71 984.189 998.71 984.714 996.307 984.714C994.037 984.845 992.167 984.32 990.699 983.271ZM1046.11 993.634V973.039C1046.11 967.66 1047.31 963.594 1049.58 960.839C1051.85 958.084 1055.06 956.641 1058.93 956.641C1060.8 956.641 1062.54 956.903 1064.14 957.428V945.491C1063.34 945.228 1062.54 945.097 1061.73 944.966C1060.93 944.835 1060 944.835 1059.06 944.835C1055.99 944.835 1053.32 945.884 1051.19 947.983C1049.05 950.082 1047.31 953.099 1046.25 956.772V945.228H1033.69V993.503H1046.11V993.634ZM1084.7 993.634V978.024L1089.24 973.826L1103.93 993.634H1118.88L1097.92 965.43L1118.48 945.359H1102.73L1084.83 962.413V926.994H1072.42V993.634H1084.7ZM1139.05 993.634V926.994H1126.5V993.634H1139.05ZM1158.27 1011.61C1162.95 1011.61 1166.69 1010.69 1169.62 1008.85C1172.56 1007.01 1174.97 1003.74 1176.97 999.144L1199.53 945.359H1186.58L1173.36 979.073L1159.74 945.359H1146.79L1166.95 993.503L1165.89 995.995C1165.22 997.57 1164.42 998.881 1163.21 999.537C1162.15 1000.32 1160.41 1000.72 1158.14 1000.72H1147.73V1011.61H1158.27Z" fill="url(#paint2_linear_3348_19879)"/>
<path d="M1291.94 1019.74C1291 1019.74 1290.07 1019.22 1289.53 1018.3C1289.13 1017.38 1289.13 1016.46 1289.8 1015.67L1318.24 977.238L1268.43 997.177C1268.03 997.308 1267.77 997.44 1267.37 997.44C1266.16 997.44 1265.1 996.652 1264.83 995.603C1264.43 994.554 1264.96 993.373 1265.9 992.717L1309.69 967.399L1232.65 963.07C1231.05 962.939 1230.11 961.758 1230.11 960.447C1230.11 959.266 1230.91 957.954 1232.65 957.823L1309.69 953.494L1265.9 928.176C1264.96 927.52 1264.43 926.339 1264.83 925.29C1265.23 924.241 1266.16 923.453 1267.37 923.453C1267.77 923.453 1268.03 923.585 1268.43 923.716L1318.24 943.655L1289.8 905.088C1289.26 904.301 1289.13 903.252 1289.53 902.464C1289.93 901.546 1290.87 901.021 1291.94 901.021C1292.6 901.021 1293.27 901.284 1293.8 901.809L1350.42 957.298C1351.22 958.085 1351.62 959.266 1351.62 960.315C1351.62 961.365 1351.22 962.414 1350.42 963.332L1293.8 1018.95C1293.27 1019.48 1292.6 1019.74 1291.94 1019.74Z" fill="white"/>
<path d="M1291.94 1019.74C1291 1019.74 1290.07 1019.22 1289.53 1018.3C1289.13 1017.38 1289.13 1016.46 1289.8 1015.67L1318.24 977.238L1268.43 997.177C1268.03 997.308 1267.77 997.44 1267.37 997.44C1266.16 997.44 1265.1 996.652 1264.83 995.603C1264.43 994.554 1264.96 993.373 1265.9 992.717L1309.69 967.399L1232.65 963.07C1231.05 962.939 1230.11 961.758 1230.11 960.447C1230.11 959.266 1230.91 957.954 1232.65 957.823L1309.69 953.494L1265.9 928.176C1264.96 927.52 1264.43 926.339 1264.83 925.29C1265.23 924.241 1266.16 923.453 1267.37 923.453C1267.77 923.453 1268.03 923.585 1268.43 923.716L1318.24 943.655L1289.8 905.088C1289.26 904.301 1289.13 903.252 1289.53 902.464C1289.93 901.546 1290.87 901.021 1291.94 901.021C1292.6 901.021 1293.27 901.284 1293.8 901.809L1350.42 957.298C1351.22 958.085 1351.62 959.266 1351.62 960.315C1351.62 961.365 1351.22 962.414 1350.42 963.332L1293.8 1018.95C1293.27 1019.48 1292.6 1019.74 1291.94 1019.74Z" fill="url(#paint3_linear_3348_19879)"/>
</g>
<path d="M594.712 394.657L537.854 642.369H505.26L465.061 504.389L424.862 642.369H392.269L335.411 394.657H369.453L411.101 586.235L448.764 453.326H481.358L519.022 586.235L560.67 394.657H594.712ZM670.795 394.657V642.369H638.201V394.657H670.795ZM883.673 394.657V642.369H868.462L764.163 456.947V642.369H731.569V394.657H764.163L851.079 550.745V394.657H883.673ZM1096.58 394.657V642.369H1081.37L977.069 456.947V642.369H944.475V394.657H977.069L1063.99 550.745V394.657H1096.58ZM1297.53 394.657V425.078H1189.97V495.697H1260.59V526.118H1189.97V611.948H1297.53V642.369H1157.38V394.657H1297.53ZM1499.58 642.369H1461.56L1409.04 543.502H1372.47V642.369H1339.87V394.657H1413.75C1459.74 394.657 1491.98 424.715 1491.98 469.622C1491.98 504.389 1472.78 529.74 1442.36 539.156L1499.58 642.369ZM1372.47 425.078V514.167H1413.75C1439.46 514.167 1459.38 497.146 1459.38 469.622C1459.38 442.099 1439.46 425.078 1413.75 425.078H1372.47ZM1571.9 394.657L1564.29 573.922H1542.56L1534.96 394.657H1571.9ZM1572.26 607.602V642.369H1534.23V607.602H1572.26Z" fill="url(#paint4_linear_3348_19879)"/>
<g filter="url(#filter0_bd_3348_19879)">
<path d="M91.4198 614.369L89.9885 622.357C85.3304 648.352 64.9827 668.7 38.9878 673.358L30.9998 674.789L38.9878 676.221C64.9827 680.879 85.3304 701.226 89.9885 727.221L91.4198 735.209L92.8512 727.221C97.5093 701.226 117.857 680.879 143.852 676.221L151.84 674.789L143.852 673.358C117.857 668.7 97.5093 648.352 92.8512 622.357L91.4198 614.369Z" fill="url(#paint5_linear_3348_19879)" shape-rendering="crispEdges"/>
</g>
<g filter="url(#filter1_d_3348_19879)">
<path d="M327.282 859.303L324 877.62C321.338 892.475 309.711 904.102 294.857 906.764L276.539 910.046L294.857 913.328C309.711 915.99 321.338 927.617 324 942.472L327.282 960.789L330.564 942.472C333.226 927.617 344.854 915.99 359.708 913.328L378.025 910.046L359.708 906.764C344.854 904.102 333.226 892.475 330.564 877.62L327.282 859.303Z" fill="url(#paint6_linear_3348_19879)" shape-rendering="crispEdges"/>
</g>
<g filter="url(#filter2_bd_3348_19879)">
<path d="M1824.61 454.789L1826.04 446.801C1830.69 420.806 1851.04 400.459 1877.04 395.8L1885.03 394.369L1877.04 392.938C1851.04 388.28 1830.69 367.932 1826.04 341.937L1824.61 333.949L1823.17 341.937C1818.52 367.932 1798.17 388.28 1772.17 392.938L1764.19 394.369L1772.17 395.8C1798.17 400.459 1818.52 420.806 1823.17 446.801L1824.61 454.789Z" fill="url(#paint7_linear_3348_19879)" shape-rendering="crispEdges"/>
</g>
<g filter="url(#filter3_d_3348_19879)">
<path d="M1588.74 209.855L1592.03 191.538C1594.69 176.684 1606.31 165.056 1621.17 162.395L1639.49 159.112L1621.17 155.83C1606.31 153.168 1594.69 141.541 1592.03 126.687L1588.74 108.369L1585.46 126.687C1582.8 141.541 1571.17 153.168 1556.32 155.83L1538 159.112L1556.32 162.395C1571.17 165.056 1582.8 176.684 1585.46 191.538L1588.74 209.855Z" fill="url(#paint8_linear_3348_19879)" shape-rendering="crispEdges"/>
</g>
<g opacity="0.33" filter="url(#filter4_d_3348_19879)">
<path d="M181.446 946.369L181.375 946.764C179.276 958.477 170.108 967.645 158.395 969.744L158 969.815L158.395 969.885C170.108 971.984 179.276 981.152 181.375 992.865L181.446 993.26L181.516 992.865C183.615 981.152 192.783 971.984 204.496 969.885L204.891 969.815L204.496 969.744C192.783 967.645 183.615 958.477 181.516 946.764L181.446 946.369Z" fill="url(#paint9_linear_3348_19879)" shape-rendering="crispEdges"/>
</g>
<g opacity="0.33" filter="url(#filter5_d_3348_19879)">
<path d="M1291.45 206.26L1291.52 205.865C1293.62 194.152 1302.78 184.984 1314.5 182.885L1314.89 182.814L1314.5 182.744C1302.78 180.645 1293.62 171.477 1291.52 159.764L1291.45 159.369L1291.37 159.764C1289.28 171.477 1280.11 180.645 1268.39 182.744L1268 182.814L1268.39 182.885C1280.11 184.984 1289.28 194.152 1291.37 205.865L1291.45 206.26Z" fill="url(#paint10_linear_3348_19879)" shape-rendering="crispEdges"/>
</g>
</g>
<defs>
<filter id="filter0_bd_3348_19879" x="-36.6333" y="546.736" width="256.106" height="256.106" filterUnits="userSpaceOnUse" color-interpolation-filters="sRGB">
<feFlood flood-opacity="0" result="BackgroundImageFix"/>
<feGaussianBlur in="BackgroundImageFix" stdDeviation="11.2722"/>
<feComposite in2="SourceAlpha" operator="in" result="effect1_backgroundBlur_3348_19879"/>
<feColorMatrix in="SourceAlpha" type="matrix" values="0 0 0 0 0 0 0 0 0 0 0 0 0 0 0 0 0 0 127 0" result="hardAlpha"/>
<feOffset/>
<feGaussianBlur stdDeviation="33.8166"/>
<feComposite in2="hardAlpha" operator="out"/>
<feColorMatrix type="matrix" values="0 0 0 0 0.996078 0 0 0 0 1 0 0 0 0 0.960784 0 0 0 1 0"/>
<feBlend mode="normal" in2="effect1_backgroundBlur_3348_19879" result="effect2_dropShadow_3348_19879"/>
<feBlend mode="normal" in="SourceGraphic" in2="effect2_dropShadow_3348_19879" result="shape"/>
</filter>
<filter id="filter1_d_3348_19879" x="238.965" y="821.729" width="176.634" height="176.634" filterUnits="userSpaceOnUse" color-interpolation-filters="sRGB">
<feFlood flood-opacity="0" result="BackgroundImageFix"/>
<feColorMatrix in="SourceAlpha" type="matrix" values="0 0 0 0 0 0 0 0 0 0 0 0 0 0 0 0 0 0 127 0" result="hardAlpha"/>
<feOffset/>
<feGaussianBlur stdDeviation="18.787"/>
<feComposite in2="hardAlpha" operator="out"/>
<feColorMatrix type="matrix" values="0 0 0 0 0.996078 0 0 0 0 1 0 0 0 0 0.960784 0 0 0 0.7 0"/>
<feBlend mode="normal" in2="BackgroundImageFix" result="effect1_dropShadow_3348_19879"/>
<feBlend mode="normal" in="SourceGraphic" in2="effect1_dropShadow_3348_19879" result="shape"/>
</filter>
<filter id="filter2_bd_3348_19879" x="1696.55" y="266.316" width="256.106" height="256.106" filterUnits="userSpaceOnUse" color-interpolation-filters="sRGB">
<feFlood flood-opacity="0" result="BackgroundImageFix"/>
<feGaussianBlur in="BackgroundImageFix" stdDeviation="11.2722"/>
<feComposite in2="SourceAlpha" operator="in" result="effect1_backgroundBlur_3348_19879"/>
<feColorMatrix in="SourceAlpha" type="matrix" values="0 0 0 0 0 0 0 0 0 0 0 0 0 0 0 0 0 0 127 0" result="hardAlpha"/>
<feOffset/>
<feGaussianBlur stdDeviation="33.8166"/>
<feComposite in2="hardAlpha" operator="out"/>
<feColorMatrix type="matrix" values="0 0 0 0 0.996078 0 0 0 0 1 0 0 0 0 0.960784 0 0 0 1 0"/>
<feBlend mode="normal" in2="effect1_backgroundBlur_3348_19879" result="effect2_dropShadow_3348_19879"/>
<feBlend mode="normal" in="SourceGraphic" in2="effect2_dropShadow_3348_19879" result="shape"/>
</filter>
<filter id="filter3_d_3348_19879" x="1500.43" y="70.7951" width="176.634" height="176.634" filterUnits="userSpaceOnUse" color-interpolation-filters="sRGB">
<feFlood flood-opacity="0" result="BackgroundImageFix"/>
<feColorMatrix in="SourceAlpha" type="matrix" values="0 0 0 0 0 0 0 0 0 0 0 0 0 0 0 0 0 0 127 0" result="hardAlpha"/>
<feOffset/>
<feGaussianBlur stdDeviation="18.787"/>
<feComposite in2="hardAlpha" operator="out"/>
<feColorMatrix type="matrix" values="0 0 0 0 0.996078 0 0 0 0 1 0 0 0 0 0.960784 0 0 0 0.7 0"/>
<feBlend mode="normal" in2="BackgroundImageFix" result="effect1_dropShadow_3348_19879"/>
<feBlend mode="normal" in="SourceGraphic" in2="effect1_dropShadow_3348_19879" result="shape"/>
</filter>
<filter id="filter4_d_3348_19879" x="128.372" y="916.742" width="106.146" height="106.146" filterUnits="userSpaceOnUse" color-interpolation-filters="sRGB">
<feFlood flood-opacity="0" result="BackgroundImageFix"/>
<feColorMatrix in="SourceAlpha" type="matrix" values="0 0 0 0 0 0 0 0 0 0 0 0 0 0 0 0 0 0 127 0" result="hardAlpha"/>
<feOffset/>
<feGaussianBlur stdDeviation="14.8138"/>
<feComposite in2="hardAlpha" operator="out"/>
<feColorMatrix type="matrix" values="0 0 0 0 0.996078 0 0 0 0 1 0 0 0 0 0.960784 0 0 0 0.7 0"/>
<feBlend mode="normal" in2="BackgroundImageFix" result="effect1_dropShadow_3348_19879"/>
<feBlend mode="normal" in="SourceGraphic" in2="effect1_dropShadow_3348_19879" result="shape"/>
</filter>
<filter id="filter5_d_3348_19879" x="1238.37" y="129.742" width="106.146" height="106.146" filterUnits="userSpaceOnUse" color-interpolation-filters="sRGB">
<feFlood flood-opacity="0" result="BackgroundImageFix"/>
<feColorMatrix in="SourceAlpha" type="matrix" values="0 0 0 0 0 0 0 0 0 0 0 0 0 0 0 0 0 0 127 0" result="hardAlpha"/>
<feOffset/>
<feGaussianBlur stdDeviation="14.8138"/>
<feComposite in2="hardAlpha" operator="out"/>
<feColorMatrix type="matrix" values="0 0 0 0 0.996078 0 0 0 0 1 0 0 0 0 0.960784 0 0 0 0.7 0"/>
<feBlend mode="normal" in2="BackgroundImageFix" result="effect1_dropShadow_3348_19879"/>
<feBlend mode="normal" in="SourceGraphic" in2="effect1_dropShadow_3348_19879" result="shape"/>
</filter>
<linearGradient id="paint0_linear_3348_19879" x1="2588.91" y1="7.39726e-05" x2="1355.64" y2="2160.69" gradientUnits="userSpaceOnUse">
<stop offset="0.123144" stop-color="#FF386B"/>
<stop offset="1" stop-color="#A34FDE"/>
</linearGradient>
<radialGradient id="paint1_radial_3348_19879" cx="0" cy="0" r="1" gradientUnits="userSpaceOnUse" gradientTransform="translate(1011 1115.5) rotate(-52.8186) scale(1365.12 2131.06)">
<stop offset="0.24838" stop-color="#BCBEC0" stop-opacity="0"/>
<stop offset="0.701801" stop-color="#BCBEC0" stop-opacity="0.25"/>
<stop offset="1" stop-color="#BCBEC0" stop-opacity="0.77"/>
</radialGradient>
<linearGradient id="paint2_linear_3348_19879" x1="883.811" y1="926.994" x2="883.811" y2="1011.61" gradientUnits="userSpaceOnUse">
<stop stop-color="white"/>
<stop offset="1" stop-color="white" stop-opacity="0"/>
</linearGradient>
<linearGradient id="paint3_linear_3348_19879" x1="1290.87" y1="901.021" x2="1290.87" y2="1019.74" gradientUnits="userSpaceOnUse">
<stop stop-color="white"/>
<stop offset="1" stop-color="white" stop-opacity="0"/>
</linearGradient>
<linearGradient id="paint4_linear_3348_19879" x1="1279.06" y1="434.773" x2="1387.26" y2="839.602" gradientUnits="userSpaceOnUse">
<stop stop-color="white"/>
<stop offset="1" stop-color="white" stop-opacity="0"/>
</linearGradient>
<linearGradient id="paint5_linear_3348_19879" x1="91.4198" y1="614.369" x2="-46.591" y2="752.38" gradientUnits="userSpaceOnUse">
<stop offset="0.189508" stop-color="white"/>
<stop offset="1" stop-color="white" stop-opacity="0"/>
</linearGradient>
<linearGradient id="paint6_linear_3348_19879" x1="327.282" y1="859.303" x2="211.375" y2="975.21" gradientUnits="userSpaceOnUse">
<stop offset="0.189508" stop-color="white"/>
<stop offset="1" stop-color="white" stop-opacity="0"/>
</linearGradient>
<linearGradient id="paint7_linear_3348_19879" x1="1824.61" y1="454.789" x2="1962.62" y2="316.778" gradientUnits="userSpaceOnUse">
<stop offset="0.189508" stop-color="white"/>
<stop offset="1" stop-color="white" stop-opacity="0"/>
</linearGradient>
<linearGradient id="paint8_linear_3348_19879" x1="1588.74" y1="209.855" x2="1704.65" y2="93.9481" gradientUnits="userSpaceOnUse">
<stop offset="0.189508" stop-color="white"/>
<stop offset="1" stop-color="white" stop-opacity="0"/>
</linearGradient>
<linearGradient id="paint9_linear_3348_19879" x1="181.446" y1="946.369" x2="127.892" y2="999.923" gradientUnits="userSpaceOnUse">
<stop offset="0.189508" stop-color="white"/>
<stop offset="1" stop-color="white" stop-opacity="0"/>
</linearGradient>
<linearGradient id="paint10_linear_3348_19879" x1="1291.45" y1="206.26" x2="1345" y2="152.706" gradientUnits="userSpaceOnUse">
<stop offset="0.189508" stop-color="white"/>
<stop offset="1" stop-color="white" stop-opacity="0"/>
</linearGradient>
<clipPath id="clip0_3348_19879">
<rect width="1920" height="1158" fill="white"/>
</clipPath>
<clipPath id="clip1_3348_19879">
<rect width="783.668" height="118.85" fill="white" transform="translate(568.087 900.89)"/>
</clipPath>
</defs>
</svg>
