<svg width="383" height="80" viewBox="0 0 383 80" fill="none" xmlns="http://www.w3.org/2000/svg">
<g filter="url(#filter0_f_3712_11445)">
<g opacity="0.22" filter="url(#filter1_f_3712_11445)">
<path d="M368.104 29.6874C368.104 5.2311 358.695 -11.4828 358.695 -11.4828L364.275 -11.4828C364.275 -11.4828 374.997 5.2311 374.997 29.6874C374.997 54.1437 364.275 70.7347 364.275 70.7347L358.695 70.7347C358.695 70.8576 368.104 54.1437 368.104 29.6874Z" fill="white"/>
<path d="M368.104 29.6874C368.104 5.2311 358.695 -11.4828 358.695 -11.4828L364.275 -11.4828C364.275 -11.4828 374.997 5.2311 374.997 29.6874C374.997 54.1437 364.275 70.7347 364.275 70.7347L358.695 70.7347C358.695 70.8576 368.104 54.1437 368.104 29.6874Z" fill="url(#paint0_linear_3712_11445)"/>
</g>
<g opacity="0.22" filter="url(#filter2_f_3712_11445)">
<path d="M323.151 29.6874C323.151 5.2311 313.333 -11.4828 313.333 -11.4828L319.156 -11.4828C319.156 -11.4828 330.344 5.2311 330.344 29.6874C330.344 54.1437 319.155 70.7347 319.155 70.7347L313.333 70.7347C313.333 70.8576 323.151 54.1437 323.151 29.6874Z" fill="white"/>
<path d="M323.151 29.6874C323.151 5.2311 313.333 -11.4828 313.333 -11.4828L319.156 -11.4828C319.156 -11.4828 330.344 5.2311 330.344 29.6874C330.344 54.1437 319.155 70.7347 319.155 70.7347L313.333 70.7347C313.333 70.8576 323.151 54.1437 323.151 29.6874Z" fill="url(#paint1_linear_3712_11445)"/>
</g>
<g opacity="0.2" filter="url(#filter3_f_3712_11445)">
<rect x="-84.999" y="-11.4824" width="369.982" height="82.9269" fill="url(#paint2_linear_3712_11445)"/>
</g>
</g>
<defs>
<filter id="filter0_f_3712_11445" x="-92.999" y="-19.4824" width="475.996" height="98.9268" filterUnits="userSpaceOnUse" color-interpolation-filters="sRGB">
<feFlood flood-opacity="0" result="BackgroundImageFix"/>
<feBlend mode="normal" in="SourceGraphic" in2="BackgroundImageFix" result="shape"/>
<feGaussianBlur stdDeviation="4" result="effect1_foregroundBlur_3712_11445"/>
</filter>
<filter id="filter1_f_3712_11445" x="355.151" y="-15.0263" width="23.3895" height="89.3055" filterUnits="userSpaceOnUse" color-interpolation-filters="sRGB">
<feFlood flood-opacity="0" result="BackgroundImageFix"/>
<feBlend mode="normal" in="SourceGraphic" in2="BackgroundImageFix" result="shape"/>
<feGaussianBlur stdDeviation="1.77194" result="effect1_foregroundBlur_3712_11445"/>
</filter>
<filter id="filter2_f_3712_11445" x="309.789" y="-15.0263" width="24.0985" height="89.3055" filterUnits="userSpaceOnUse" color-interpolation-filters="sRGB">
<feFlood flood-opacity="0" result="BackgroundImageFix"/>
<feBlend mode="normal" in="SourceGraphic" in2="BackgroundImageFix" result="shape"/>
<feGaussianBlur stdDeviation="1.77194" result="effect1_foregroundBlur_3712_11445"/>
</filter>
<filter id="filter3_f_3712_11445" x="-88.5429" y="-15.0263" width="377.069" height="90.0145" filterUnits="userSpaceOnUse" color-interpolation-filters="sRGB">
<feFlood flood-opacity="0" result="BackgroundImageFix"/>
<feBlend mode="normal" in="SourceGraphic" in2="BackgroundImageFix" result="shape"/>
<feGaussianBlur stdDeviation="1.77194" result="effect1_foregroundBlur_3712_11445"/>
</filter>
<linearGradient id="paint0_linear_3712_11445" x1="366.846" y1="70.7353" x2="366.846" y2="-11.4828" gradientUnits="userSpaceOnUse">
<stop stop-color="white"/>
<stop offset="1" stop-color="white" stop-opacity="0"/>
</linearGradient>
<linearGradient id="paint1_linear_3712_11445" x1="321.838" y1="70.7353" x2="321.838" y2="-11.4828" gradientUnits="userSpaceOnUse">
<stop stop-color="white"/>
<stop offset="1" stop-color="white" stop-opacity="0"/>
</linearGradient>
<linearGradient id="paint2_linear_3712_11445" x1="424.257" y1="53.0163" x2="-63.5124" y2="-39.117" gradientUnits="userSpaceOnUse">
<stop stop-color="#F8F8F8"/>
<stop offset="1" stop-color="#F8F8F8" stop-opacity="0"/>
</linearGradient>
</defs>
</svg>
